# xmcd
#
# Track frame offsets:
#	150
#	13609
#	28772
#	41960
#	55060
#	68980
#	82350
#	100850
#	117200
#	129585
#	149375
#	166145
#	178612
#	191690
#	206620
#	221792
#
# Disc length: 3132 seconds
#
# Revision: 2
# Processed by: cddbd v1.5.2PL0 Copyright (c) Steve Scherf et al.
# Submitted via: audiograbber 1.83.01
#
DISCID=f10c3a10
DTITLE=Various Artist - MH1020
DYEAR=1900
DGENRE=Karaoke
TTITLE0=Frickie, Janie - He's A Heartache (Looking For A Place To Happen)
TTITLE1=Murray, Anne - Could I Have This Dance
TTITLE2=Tucker, Tanya - San Antonio Stroll
TTITLE3=Tucker, Tanya - Delta Dawn
TTITLE4=Judds, The - Have Mercy
TTITLE5=Gayle, Crystal - Talking In Your Sleep
TTITLE6=Newton, Juice - Break it To Me Gently
TTITLE7=Mandrell, Barbara - I Was Country When Country Wasn't Cool
TTITLE8=Gayle, Crystal - Don't It Make My Brown Eyes Blue
TTITLE9=Judds, The - Granda (Tell Me 'Bout The Good Old Days)
TTITLE10=McEntire, Reba - Somebody Should Leave
TTITLE11=Judds, The - Girls Night Out
TTITLE12=Parton, Dolly - 9 To 5
TTITLE13=Dunn, Holly - Daddy's Hands
TTITLE14=Judds, The - Mama He's Crazy
TTITLE15=Tucker, Tanya - Strong Enough To Bend
EXTD=
EXTT0=
EXTT1=
EXTT2=
EXTT3=
EXTT4=
EXTT5=
EXTT6=
EXTT7=
EXTT8=
EXTT9=
EXTT10=
EXTT11=
EXTT12=
EXTT13=
EXTT14=
EXTT15=
PLAYORDER=
